<?xml version="1.0" encoding="UTF-8"?>
<!DOCTYPE svg PUBLIC "-//W3C//DTD SVG 1.1//EN" "http://www.w3.org/Graphics/SVG/1.1/DTD/svg11.dtd">
<!-- Creator: CorelDRAW -->
<svg xmlns="http://www.w3.org/2000/svg" xml:space="preserve" width="75px" height="75px" shape-rendering="geometricPrecision" text-rendering="geometricPrecision" image-rendering="optimizeQuality" fill-rule="evenodd" clip-rule="evenodd"
viewBox="0 0 75 75"
 version="1.1"
 xmlns:xlink="http://www.w3.org/1999/xlink">
 <g id="Capa_x0020_1">
  <metadata id="CorelCorpID_0Corel-Layer"/>
  <g id="_200606904">
   <g>
    <path id="_201098480" fill="black" d="M43.0642 52.1941l-22.3039 0c-2.51811,0 -4.56614,-2.04803 -4.56614,-4.56614l0 -16.8213c0,-0.556299 -0.451181,-1.00748 -1.00748,-1.00748l-11.3114 -0.0011811c-1.04055,0 -1.88504,0.845669 -1.88504,1.88504l0 26.3114c0,1.03819 0.844488,1.88386 1.88504,1.88386l3.03189 0.0011811c0.325984,0 0.633071,0.159449 0.822047,0.425197l5.11654 7.22244c0.190157,0.266929 0.496063,0.425197 0.822047,0.425197 0.327165,0 0.633071,-0.159449 0.822047,-0.425197l5.11772 -7.22244c0.187795,-0.265748 0.494882,-0.425197 0.820866,-0.425197l21.7583 0c1.03937,0 1.88504,-0.844488 1.88504,-1.88386l0 -4.79409c0.0011811,-0.556299 -0.45,-1.00748 -1.00748,-1.00748z"/>
    <path id="_201098744" fill="black" d="M68.9291 11.6787l-47.1614 0c-1.40787,0 -2.55236,1.14567 -2.55236,2.55236l0 32.3882c0,1.40787 1.14449,2.55236 2.55236,2.55236l26.7839 0.0011811c0.325984,0 0.633071,0.158268 0.822047,0.424016l6.67913 9.42756c0.188976,0.266929 0.494882,0.424016 0.820866,0.424016 0.327165,0 0.633071,-0.158268 0.822047,-0.424016l6.67795 -9.42756c0.187795,-0.265748 0.496063,-0.424016 0.822047,-0.424016l3.73346 0c1.40787,0 2.55236,-1.14449 2.55236,-2.55236l0 -32.3882c0,-1.40787 -1.14449,-2.55354 -2.55236,-2.55354zm-21.1004 26.9102l0 2.24646c0,0.232677 -0.188976,0.420472 -0.420472,0.420472l-3.23268 0.0011811c-0.233858,0 -0.421654,-0.188976 -0.421654,-0.421654l0 -2.32795c-1.70433,-0.409843 -3.27874,-1.28268 -4.36063,-2.42598l-0.628346 -0.66378c-0.0767717,-0.080315 -0.11811,-0.188976 -0.114567,-0.302362 0.0023622,-0.111024 0.0507874,-0.217323 0.131102,-0.294094l2.34803 -2.22165c0.170079,-0.159449 0.435827,-0.152362 0.595276,0.0165354l0.628346 0.66378c0.798425,0.843307 2.21575,1.41024 3.52795,1.41024 1.03819,0 2.79213,-0.274016 2.79213,-1.30157 0.00708661,-0.887008 -0.376772,-1.24252 -3.09449,-2.06575 -2.32323,-0.703937 -6.21024,-1.8815 -6.21024,-6.25866 0,-2.45079 1.67126,-4.40197 4.38543,-5.15315l0 -2.40591c0,-0.232677 0.187795,-0.420472 0.421654,-0.420472l3.23268 0c0.232677,0 0.420472,0.188976 0.420472,0.420472l0 2.18268c1.40433,0.206693 2.76732,0.690945 3.78661,1.34882l0.767717 0.496063c0.196063,0.127559 0.251575,0.387402 0.124016,0.583465l-1.75276 2.71535c-0.125197,0.196063 -0.387402,0.251575 -0.583465,0.124016l-0.766535 -0.494882c-0.726378,-0.468898 -2.00197,-0.809055 -3.03425,-0.809055 -1.08661,0 -2.92559,0.297638 -2.92559,1.41142 0,1.04882 0.435827,1.48465 3.31654,2.35748 2.39764,0.726378 6.02244,1.82362 5.98819,5.98346 -0.0011811,2.64331 -1.87441,4.60512 -4.92047,5.18504z"/>
   </g>
   <g>
   </g>
   <g>
   </g>
   <g>
   </g>
   <g>
   </g>
   <g>
   </g>
   <g>
   </g>
   <g>
   </g>
   <g>
   </g>
   <g>
   </g>
   <g>
   </g>
   <g>
   </g>
   <g>
   </g>
   <g>
   </g>
   <g>
   </g>
   <g>
   </g>
  </g>
 </g>
</svg>
