<?xml version="1.0" encoding="UTF-8"?>
<!DOCTYPE svg PUBLIC "-//W3C//DTD SVG 1.1//EN" "http://www.w3.org/Graphics/SVG/1.1/DTD/svg11.dtd">
<!-- Creator: CorelDRAW -->
<svg xmlns="http://www.w3.org/2000/svg" xml:space="preserve" width="75px" height="75px" shape-rendering="geometricPrecision" text-rendering="geometricPrecision" image-rendering="optimizeQuality" fill-rule="evenodd" clip-rule="evenodd"
viewBox="0 0 75 75">
 <g id="Capa_x0020_1">
  <metadata id="CorelCorpID_0Corel-Layer"/>
  <g id="_201076160">
   <path id="_201076136" fill="black" d="M11.3894 71.615c-0.314173,-0.0602362 -0.596457,-0.18189 -0.869291,-0.35315 0,-0.0200787 0,-0.0401575 0,-0.0507874 -0.242126,-0.080315 -0.403937,-0.535039 -0.454724,-0.757087 0,-9.10394 0,-18.2067 0,-27.3 0.17126,-0.667323 0.596457,-1.05118 1.29331,-1.15157 1.93937,0 3.87992,0 5.82992,0 0.191339,0.0507874 0.383858,0.111024 0.575197,0.17126 0.212598,0.161811 0.343701,0.334252 0.516142,0.525591 0.0602362,0.161811 0.120472,0.333071 0.191339,0.505512 0,9.0626 0,18.1252 0,27.1984 -0.111024,0.312992 -0.232677,0.636614 -0.505512,0.838583 0,0.00944882 0,0.0307087 0,0.0507874 -0.0602362,0.00944882 -0.0602362,0.00944882 -0.201969,0.131102 -0.231496,0.0708661 -0.454724,0.151181 -0.69685,0.17126 -1.89921,0 -3.78898,0.0106299 -5.67756,0.0200787z"/>
   <path id="_201075944" fill="black" d="M26.9681 71.615c-0.716929,-0.18189 -1.16102,-0.413386 -1.34291,-1.1811 0,-12.9732 0,-25.9465 0,-38.9197 0.151181,-0.706299 0.605906,-1.05 1.29331,-1.17165 1.93937,0 3.87874,0 5.82874,0 0.70748,0.101575 1.07126,0.514961 1.28386,1.17165 0,12.9732 0,25.9465 0,38.9197 -0.0708661,0.201969 -0.152362,0.393307 -0.263386,0.575197 -0.222047,0.222047 -0.222047,0.222047 -0.242126,0.283465 -0.0602362,0.00944882 -0.0602362,0.00944882 -0.201969,0.131102 -0.232677,0.0708661 -0.454724,0.141732 -0.69685,0.17126 -1.88976,0 -3.77953,0.0106299 -5.65866,0.0200787z"/>
   <path id="_201075752" fill="black" d="M42.528 71.615c-0.585827,-0.111024 -1.0311,-0.373228 -1.28268,-0.929528 -0.0307087,-0.17126 -0.0614173,-0.34252 -0.0909449,-0.514961 0,-8.76969 0,-17.5394 0,-26.3091 0.120472,-0.71811 0.413386,-1.15157 1.14094,-1.33346 2.05157,0 4.10197,0 6.15354,0 0.080315,0.00944882 0.17126,0.0295276 0.262205,0.0496063 0.333071,0.243307 0.514961,0.314173 0.747638,0.698031 0.0401575,0.131102 0.0814961,0.272835 0.121654,0.413386 0,8.91142 0,17.8228 0,26.7449 -0.0814961,0.271654 -0.19252,0.514961 -0.374409,0.726378 -0.111024,0.0814961 -0.222047,0.172441 -0.322441,0.263386 -0.232677,0.0708661 -0.454724,0.141732 -0.698031,0.17126 -1.88858,0 -3.77835,0.0106299 -5.65748,0.0200787z"/>
   <path id="_201075800" fill="black" d="M58.1173 71.615c-0.596457,-0.100394 -0.989764,-0.333071 -1.28268,-0.86811 -0.0401575,-0.172441 -0.0814961,-0.334252 -0.121654,-0.494882 0,-12.8728 0,-25.7445 0,-38.6055 0.201969,-0.767717 0.454724,-1.10197 1.25315,-1.30394 1.97008,0 3.95079,0 5.93031,0 0.525591,0.111024 0.869291,0.303543 1.1315,0.787795 0.0401575,0.212598 0.0909449,0.425197 0.141732,0.636614 0,12.802 0,25.6028 0,38.4035 -0.0401575,0.283465 -0.111024,0.565748 -0.252756,0.818504 -0.18189,0.201969 -0.242126,0.222047 -0.262205,0.283465 -0.272835,0.151181 -0.545669,0.292913 -0.87874,0.322441 -1.88976,0 -3.77953,0.0106299 -5.65866,0.0200787z"/>
   <path id="_201076040" fill="black" d="M44.6693 38.3846c-0.413386,-0.0909449 -0.625984,-0.201969 -0.938976,-0.484252 -0.0909449,-0.121654 -0.18189,-0.243307 -0.263386,-0.354331 -0.18189,-0.211417 -0.36378,-0.464173 -0.555118,-0.656693 0,-0.140551 -0.383858,-0.444094 -0.454724,-0.615354 -0.232677,-0.294094 -0.464173,-0.587008 -0.69685,-0.869291 -0.243307,-0.212598 -0.414567,-0.576378 -0.667323,-0.798425 -0.0200787,-0.0602362 -0.282283,-0.36378 -0.312992,-0.444094 -0.0909449,-0.111024 -0.18189,-0.212598 -0.262205,-0.312992 -0.0507874,-0.0909449 -0.516142,-0.616535 -0.627165,-0.798425 -0.0200787,0 -0.0295276,0 -0.0401575,0 -0.0200787,-0.101575 -0.101575,-0.161811 -0.17126,-0.232677 -0.0307087,-0.131102 -0.425197,-0.605906 -0.525591,-0.636614 -0.101575,-0.242126 -0.425197,-0.454724 -0.505512,-0.69685 -0.414567,-0.505512 -0.87874,-1.0311 -1.24252,-1.56614 -0.485433,-0.605906 -0.960236,-1.20236 -1.43504,-1.79882 -0.0602362,0 -0.585827,-0.666142 -0.676772,-0.848031 -0.252756,-0.121654 -0.36378,-0.656693 -0.625984,-0.738189 -0.223228,-0.444094 -0.698031,-0.767717 -0.920079,-1.22244 -0.120472,-0.0401575 -0.222047,-0.211417 -0.272835,-0.323622 -0.333071,-0.424016 -0.666142,-0.848031 -1.00039,-1.2626 -0.0200787,0 -0.0401575,0 -0.0496063,0 -0.0814961,-0.201969 -0.283465,-0.323622 -0.36378,-0.525591 -0.141732,-0.0909449 -0.323622,-0.35315 -0.403937,-0.494882 -0.294094,-0.252756 -0.434646,-0.70748 -0.788976,-0.87874 -0.464173,0.272835 -0.848031,0.747638 -1.31339,1.02047 -0.0295276,0.0507874 -0.494882,0.394488 -0.525591,0.454724 -0.636614,0.494882 -1.29331,1.00039 -1.90866,1.52598 -0.0413386,0.0200787 -0.0814961,0.0401575 -0.121654,0.0602362 -0.667323,0.585827 -1.42441,1.11142 -2.09173,1.69724 -0.0295276,0.0106299 -0.0507874,0.0200787 -0.0708661,0.0307087 0,0.00944882 0,0.0295276 0,0.0496063 -0.111024,0.0708661 -0.211417,0.141732 -0.312992,0.212598 0,0.0106299 0,0.0307087 0,0.0507874 -0.242126,0.0295276 -0.464173,0.414567 -0.70748,0.505512 -0.120472,0.120472 -0.251575,0.211417 -0.393307,0.302362 0,0.0200787 0,0.0401575 0,0.0614173 -0.0614173,0.00944882 -0.131102,0.0897638 -0.312992,0.201969 0,0.00944882 0,0.0295276 0,0.0496063 -0.19252,0.0909449 -0.405118,0.252756 -0.545669,0.414567 -0.940157,0.738189 -1.86969,1.4752 -2.79921,2.2122 0,0.0614173 -0.575197,0.485433 -0.676772,0.53622 -0.454724,0.484252 -1.1622,0.818504 -1.6063,1.32283 -0.434646,0.18189 -0.787795,0.687402 -1.19291,0.929528 -0.16063,0.132283 -0.322441,0.263386 -0.474803,0.394488 -0.251575,0.17126 -0.858661,0.576378 -0.969685,0.807874 -0.120472,0 -0.292913,0.172441 -0.36378,0.263386 -0.545669,0.434646 -1.09134,0.86811 -1.62638,1.30276 -0.312992,0.172441 -0.585827,0.232677 -0.929528,0.252756 -0.19252,-0.0507874 -0.373228,-0.100394 -0.555118,-0.141732 -0.0507874,-0.0602362 -0.0507874,-0.0602362 -0.263386,-0.17126 -0.141732,-0.141732 -0.292913,-0.303543 -0.373228,-0.474803 -0.101575,0 -0.243307,-0.262205 -0.283465,-0.333071 -0.0401575,0 -0.394488,-0.496063 -0.434646,-0.556299 -0.0200787,0 -0.0295276,0 -0.0401575,0 -0.312992,-0.494882 -0.807874,-0.918898 -1.09134,-1.42441 -0.302362,-0.303543 -0.565748,-0.667323 -0.807874,-1.00984 -0.656693,-0.576378 -0.525591,-1.58622 0.0401575,-2.15197 0.121654,-0.0413386 0.656693,-0.475984 0.69685,-0.556299 1.53661,-1.23307 3.07205,-2.45551 4.60748,-3.67795 0.0708661,-0.0295276 0.494882,-0.403937 0.616535,-0.464173 0.464173,-0.394488 0.929528,-0.778346 1.40433,-1.1622 0.474803,0 1.07126,-0.989764 1.59567,-1.22244 0,-0.151181 0.272835,-0.201969 0.334252,-0.323622 0.494882,-0.292913 1.02047,-0.757087 1.45512,-1.16102 0.625984,-0.475984 0.918898,-0.727559 0.979134,-0.748819 1.38425,-1.1315 1.44567,-1.15157 1.45512,-1.19173 0.283465,-0.222047 0.565748,-0.434646 0.849213,-0.646063 0,-0.0909449 1.25197,-1.02047 1.38425,-1.12205 0.0602362,-0.0708661 0.18189,-0.131102 0.231496,-0.212598 0.950787,-0.757087 1.90984,-1.49528 2.82992,-2.26299 0.0200787,-0.00944882 0.0401575,-0.0200787 0.069685,-0.0200787 0.607087,-0.505512 1.22362,-1.00984 1.83898,-1.50472 0.0814961,-0.0212598 0.132283,-0.0814961 0.172441,-0.141732 0.838583,-0.636614 1.67717,-1.30394 2.48504,-1.97008 0.263386,-0.101575 0.445276,-0.18189 0.716929,-0.222047 0.303543,0.0200787 0.303543,0.0200787 0.587008,0.080315 0.18189,0.080315 0.34252,0.252756 0.504331,0.323622 0.0106299,0.0200787 0.747638,1.09134 0.970866,1.20236 0.0401575,0.131102 0.18189,0.312992 0.302362,0.383858 0.263386,0.393307 0.596457,0.798425 0.88937,1.16102 0.080315,0 0.909449,1.09134 0.980315,1.2437 0.161811,0 0.827953,1.00984 1.00984,1.27323 0.172441,0 0.556299,0.807874 0.747638,0.86811 0.0602362,0.0909449 0.121654,0.18189 0.18189,0.283465 0.343701,0.413386 0.687402,0.838583 1.04055,1.2626 0.121654,0.201969 0.121654,0.201969 0.201969,0.262205 1.90039,2.45551 3.93071,4.84961 5.80984,7.3252 0.121654,0.0708661 0.17126,0.243307 0.303543,0.323622 0.252756,-0.232677 0.504331,-0.465354 0.757087,-0.687402 0.0200787,-0.0401575 0.0401575,-0.0708661 0.0614173,-0.100394 0.111024,-0.0708661 1.97008,-1.92992 2.07047,-2.00079 0.141732,-0.232677 0.434646,-0.374409 0.565748,-0.605906 0.312992,-0.18189 0.514961,-0.576378 0.818504,-0.778346 0.0401575,-0.0708661 0.625984,-0.625984 0.70748,-0.676772 0.0401575,-0.0814961 0.0401575,-0.0814961 0.625984,-0.656693 0.0708661,-0.0401575 0.425197,-0.434646 0.494882,-0.465354 0.152362,-0.17126 0.303543,-0.34252 0.465354,-0.504331 0.323622,-0.283465 2.09173,-2.06102 2.27362,-2.20276 0.787795,-0.798425 1.59567,-1.63701 2.4248,-2.39528 0.100394,-0.211417 0.413386,-0.373228 0.524409,-0.595276 -0.131102,-0.222047 -0.383858,-0.36378 -0.524409,-0.585827 -0.19252,-0.0909449 -0.323622,-0.383858 -0.525591,-0.485433 0,-0.0307087 -0.70748,-0.778346 -0.838583,-0.838583 -0.101575,-0.201969 -0.394488,-0.292913 -0.454724,-0.474803 -0.19252,-0.0602362 -0.333071,-0.374409 -0.505512,-0.454724 -0.0909449,-0.131102 -0.484252,-0.585827 -0.605906,-0.605906 -0.0200787,-0.0401575 -0.0401575,-0.0708661 -0.0602362,-0.101575 -0.0614173,0 -0.496063,-0.474803 -0.545669,-0.545669 -0.0708661,-0.0295276 -0.0814961,-0.0401575 -0.101575,-0.111024 -0.424016,-0.35315 -0.403937,-0.838583 -0.383858,-1.35354 0.0401575,-0.101575 0.080315,-0.201969 0.121654,-0.292913 0.322441,-0.403937 0.504331,-0.585827 0.989764,-0.727559 4.76929,-0.0200787 9.54803,-0.0401575 14.3268,-0.0602362 0.505512,0.120472 0.767717,0.322441 1.05118,0.727559 0.0401575,0.131102 0.0909449,0.262205 0.140551,0.403937 0.0106299,0.231496 0.0200787,0.464173 0.0307087,0.69685 0,4.5874 0,9.18425 0,13.7811 -0.0909449,0.242126 -0.212598,0.434646 -0.343701,0.646063 -0.252756,0.18189 -0.494882,0.314173 -0.787795,0.405118 -0.17126,0 -0.343701,0 -0.505512,0 -0.151181,-0.0507874 -0.292913,-0.101575 -0.434646,-0.152362 -0.34252,-0.282283 -0.34252,-0.282283 -0.393307,-0.292913 -0.0708661,-0.111024 -0.222047,-0.222047 -0.272835,-0.323622 -0.151181,-0.131102 -0.292913,-0.262205 -0.434646,-0.393307 -0.0708661,-0.121654 -0.232677,-0.201969 -0.262205,-0.303543 -0.212598,-0.201969 -0.405118,-0.36378 -0.576378,-0.575197 -0.0401575,-0.0307087 -0.080315,-0.0614173 -0.121654,-0.0814961 0,-0.333071 -0.656693,-0.474803 -0.747638,-0.757087 -0.36378,-0.354331 -0.36378,-0.354331 -0.413386,-0.36378 -0.0200787,-0.0708661 -0.0200787,-0.0708661 -0.172441,-0.222047 -0.272835,-0.132283 -0.494882,-0.596457 -0.777165,-0.738189 -0.112205,-0.141732 -0.36378,-0.514961 -0.496063,-0.252756 -0.100394,0.0106299 -0.080315,0.0507874 -0.111024,0.111024 -0.222047,0.111024 -0.36378,0.354331 -0.555118,0.474803 -0.0909449,0.18189 -0.36378,0.314173 -0.445276,0.485433 -0.18189,0.161811 -0.36378,0.333071 -0.545669,0.505512 -0.080315,0.201969 -0.403937,0.312992 -0.464173,0.504331 -0.343701,0.303543 -1.87913,1.84961 -2.11181,2.04094 -0.00944882,0.0200787 -0.00944882,0.0413386 -0.00944882,0.0614173 -0.132283,0 -0.223228,0.18189 -0.272835,0.272835 -0.141732,0.100394 -0.212598,0.140551 -0.272835,0.272835 -0.172441,0.0496063 -0.36378,0.272835 -0.434646,0.433465 -0.101575,0.0507874 -0.252756,0.132283 -0.252756,0.263386 -0.151181,0 -0.383858,0.323622 -0.434646,0.434646 -0.303543,0 -0.565748,0.565748 -0.827953,0.737008 -0.0708661,0.0708661 -0.161811,0.222047 -0.252756,0.252756 -0.19252,0.201969 -0.36378,0.424016 -0.585827,0.585827 -0.0614173,0.131102 -0.252756,0.272835 -0.374409,0.374409 -0.161811,0.211417 -0.474803,0.393307 -0.585827,0.615354 -0.080315,0 -0.676772,0.627165 -0.69685,0.698031 -0.0909449,0 -0.0909449,0.0602362 -0.131102,0.120472 -0.788976,0.727559 -1.51654,1.48583 -2.28425,2.25354 -0.080315,0.0200787 -0.0909449,0.0602362 -0.111024,0.111024 -0.858661,0.758268 -1.63701,1.67717 -2.50512,2.43543 -0.0814961,0.131102 -0.312992,0.373228 -0.434646,0.433465 -0.121654,0.243307 -0.485433,0.425197 -0.596457,0.647244 -0.0200787,0 -0.0401575,0 -0.0602362,0.00944882 -0.131102,0.20315 -0.414567,0.354331 -0.514961,0.566929 -0.0212598,0 -0.0413386,0 -0.0614173,0.00944882 -0.424016,0.394488 -0.757087,0.818504 -1.2626,1.09134 -0.323622,0.0602362 -0.323622,0.0602362 -0.667323,0.080315z"/>
  </g>
 </g>
</svg>
