<?xml version="1.0" encoding="UTF-8"?>
<!DOCTYPE svg PUBLIC "-//W3C//DTD SVG 1.1//EN" "http://www.w3.org/Graphics/SVG/1.1/DTD/svg11.dtd">
<!-- Creator: CorelDRAW -->
<svg xmlns="http://www.w3.org/2000/svg" xml:space="preserve" width="100px" height="30px" shape-rendering="geometricPrecision" text-rendering="geometricPrecision" image-rendering="optimizeQuality" fill-rule="evenodd" clip-rule="evenodd"
viewBox="0 0 100 30.0002">
 <g id="Capa_x0020_1">
  <metadata id="CorelCorpID_0Corel-Layer"/>
  <path fill="#0093DD" fill-rule="nonzero" d="M2.00553 24.9439l0 -12.7442c0,-0.218506 0.100394,-0.381499 0.298821,-0.490161 0.199608,-0.109843 0.439374,-0.164175 0.721659,-0.164175 0.282286,0 0.523232,0.0543311 0.72284,0.164175 0.198427,0.108662 0.29764,0.271656 0.29764,0.490161l0 5.31264 4.79413 0 0 -5.31264c0,-0.218506 0.0992134,-0.381499 0.298821,-0.490161 0.198427,-0.109843 0.439374,-0.164175 0.721659,-0.164175 0.282286,0 0.523232,0.0543311 0.721659,0.164175 0.198427,0.108662 0.298821,0.271656 0.298821,0.490161l0 12.7442c0,0.204332 -0.100394,0.368507 -0.298821,0.490161 -0.198427,0.121655 -0.439374,0.183072 -0.721659,0.183072 -0.269293,0 -0.506697,-0.0614178 -0.71221,-0.183072 -0.205513,-0.121655 -0.30827,-0.285829 -0.30827,-0.490161l0 -5.81343 -4.79413 0 0 5.81343c0,0.204332 -0.0992134,0.368507 -0.29764,0.490161 -0.199608,0.121655 -0.440555,0.183072 -0.72284,0.183072 -0.269293,0 -0.506697,-0.0614178 -0.71221,-0.183072 -0.205513,-0.121655 -0.30827,-0.285829 -0.30827,-0.490161zm11.282 -3.50436l0 -5.60083c0,-1.47639 0.390948,-2.56065 1.17402,-3.25396 0.783077,-0.693313 1.82954,-1.03938 3.13821,-1.03938 1.30985,0 2.35868,0.346066 3.14766,1.03938 0.790164,0.693313 1.18465,1.77757 1.18465,3.25396l0 5.60083c0,1.47639 -0.394491,2.56065 -1.18465,3.25396 -0.788983,0.692131 -1.83781,1.03938 -3.14766,1.03938 -1.30867,0 -2.35514,-0.347247 -3.13821,-1.03938 -0.783077,-0.693313 -1.17402,-1.77757 -1.17402,-3.25396zm2.04096 0c0,1.65592 0.757093,2.48388 2.27128,2.48388 0.732289,0 1.29686,-0.205513 1.6949,-0.61654 0.396854,-0.409846 0.596461,-1.03229 0.596461,-1.86734l0 -5.60083c0,-0.835046 -0.199608,-1.45749 -0.596461,-1.86734 -0.398035,-0.411027 -0.962606,-0.61654 -1.6949,-0.61654 -1.51419,0 -2.27128,0.827959 -2.27128,2.48388l0 5.60083zm8.85598 0l0 -5.60083c0,-1.47639 0.394491,-2.56065 1.18347,-3.25396 0.788983,-0.693313 1.82009,-1.03938 3.08979,-1.03938 1.30985,0 2.36459,0.323625 3.16656,0.972055 0.803156,0.64843 1.20355,1.48584 1.20355,2.51222 0,0.411027 -0.0767723,0.689769 -0.230317,0.837408 -0.154726,0.147639 -0.416932,0.220868 -0.790164,0.220868 -0.667328,0 -1.00749,-0.224411 -1.02048,-0.673234 -0.0767723,-1.37363 -0.826778,-2.05986 -2.25238,-2.05986 -1.53899,0 -2.31025,0.827959 -2.31025,2.48388l0 5.60083c0,1.65592 0.783077,2.48388 2.34923,2.48388 0.461815,0 0.846857,-0.0673234 1.15513,-0.20197 0.30827,-0.134647 0.529138,-0.330711 0.663785,-0.587012 0.134647,-0.257482 0.227955,-0.481894 0.279923,-0.674415 0.0507878,-0.192521 0.0897645,-0.429925 0.114568,-0.71221 0.0389767,-0.448822 0.373231,-0.673234 1.00158,-0.673234 0.37205,0 0.638981,0.0732289 0.799613,0.220868 0.15945,0.147639 0.239766,0.426381 0.239766,0.837408 0,1.06536 -0.40394,1.93112 -1.213,2.59845 -0.80788,0.667328 -1.86734,1.00158 -3.17601,1.00158 -1.27088,0 -2.29726,-0.347247 -3.08034,-1.03938 -0.783077,-0.693313 -1.17402,-1.77757 -1.17402,-3.25396zm14.1013 0.160631c-0.121655,-0.160631 -0.183072,-0.366145 -0.183072,-0.612997 0,-0.246852 0.0614178,-0.454728 0.183072,-0.622446 0.121655,-0.17008 0.279923,-0.252758 0.472445,-0.252758l5.00437 0c0.18071,0 0.34016,0.0862212 0.481894,0.262207 0.140552,0.177167 0.211419,0.379137 0.211419,0.612997 0,0.246852 -0.0708667,0.452366 -0.211419,0.612997 -0.141733,0.164175 -0.301183,0.24449 -0.481894,0.24449l-5.00437 0c-0.192521,0 -0.35079,-0.0803156 -0.472445,-0.24449zm11.9458 -0.160631l0 -5.60083c0,-1.47639 0.392129,-2.56065 1.17402,-3.25396 0.783077,-0.693313 1.81064,-1.03938 3.08034,-1.03938 1.29686,0 2.35277,0.323625 3.16774,0.972055 0.814967,0.64843 1.22245,1.51064 1.22245,2.589 0,0.37205 -0.0803156,0.629533 -0.240947,0.770085 -0.160631,0.141733 -0.420476,0.211419 -0.779534,0.211419 -0.667328,0 -1.00749,-0.224411 -1.02048,-0.673234 -0.141733,-1.37363 -0.904732,-2.05986 -2.29136,-2.05986 -1.51419,0 -2.27128,0.827959 -2.27128,2.48388l0 5.60083c0,1.65592 0.757093,2.48388 2.27128,2.48388 0.732289,0 1.29686,-0.205513 1.6949,-0.620084 0.396854,-0.413389 0.596461,-1.03583 0.596461,-1.87679l0 -1.58387 -1.94411 0c-0.205513,0 -0.366145,-0.0803156 -0.481894,-0.237403 -0.115749,-0.160631 -0.173623,-0.353152 -0.173623,-0.581107 0,-0.20197 0.0578745,-0.388586 0.173623,-0.551579 0.115749,-0.164175 0.27638,-0.248033 0.481894,-0.248033l3.31066 0c0.205513,0 0.369688,0.0685045 0.491342,0.203151 0.121655,0.134647 0.183072,0.29764 0.183072,0.490161l0 2.52167c0,1.47639 -0.394491,2.56065 -1.18465,3.25396 -0.788983,0.692131 -1.83781,1.03938 -3.14766,1.03938 -1.30867,0 -2.35514,-0.347247 -3.13821,-1.03938 -0.781896,-0.693313 -1.17402,-1.77757 -1.17402,-3.25396zm10.0501 1.79057c0,-1.02639 0.385042,-1.74214 1.15513,-2.14608 0.768904,-0.40394 1.88624,-0.607091 3.34963,-0.607091l0.846857 0 0 -0.355515c0,-0.577564 -0.157088,-1.07481 -0.471264,-1.49529 -0.315357,-0.420476 -0.792526,-0.631895 -1.43505,-0.631895 -0.551579,0 -1.03583,0.1063 -1.45277,0.317719 -0.418114,0.211419 -0.644887,0.317719 -0.683864,0.317719 -0.218506,0 -0.394491,-0.1063 -0.529138,-0.317719 -0.134647,-0.211419 -0.20197,-0.44646 -0.20197,-0.702761 0,-0.334255 0.310632,-0.622446 0.933078,-0.865755 0.622446,-0.24449 1.28033,-0.366145 1.97364,-0.366145 1.32166,0 2.30081,0.355515 2.93624,1.06772 0.634257,0.71221 0.951976,1.60159 0.951976,2.66695l0 4.83193c0,0.179529 -0.0921267,0.336617 -0.278742,0.471264 -0.186616,0.134647 -0.420476,0.20197 -0.702761,0.20197 -0.256301,0 -0.474807,-0.0673234 -0.654336,-0.20197 -0.179529,-0.134647 -0.269293,-0.291735 -0.269293,-0.471264l0 -0.674415c-0.859849,1.00158 -1.82954,1.50119 -2.90672,1.50119 -0.745281,0 -1.35828,-0.217325 -1.83899,-0.654336 -0.481894,-0.43583 -0.721659,-1.06536 -0.721659,-1.88624zm2.03978 -0.250396c0,0.411027 0.115749,0.721659 0.347247,0.934259 0.230317,0.211419 0.532681,0.317719 0.904732,0.317719 0.487799,0 0.953157,-0.205513 1.39607,-0.61654 0.442917,-0.411027 0.663785,-0.846857 0.663785,-1.30867l0 -0.71221 -0.481894 0c-0.577564,0 -1.04883,0.0248033 -1.41497,0.0767723 -0.364964,0.0507878 -0.692131,0.185435 -0.981504,0.40394 -0.288191,0.218506 -0.433468,0.519689 -0.433468,0.904732zm6.81501 1.25198c0,-0.192521 0.0673234,-0.392129 0.203151,-0.597643 0.137009,-0.205513 0.301183,-0.307089 0.497248,-0.307089 0.114568,0 0.275199,0.0732289 0.484256,0.224411 0.205513,0.150001 0.484256,0.301183 0.833865,0.452366 0.349609,0.150001 0.770085,0.227955 1.26143,0.227955 1.1008,0 1.64883,-0.35079 1.64883,-1.04646 0,-0.375594 -0.160631,-0.667328 -0.480712,-0.88229 -0.321262,-0.211419 -0.709848,-0.379137 -1.16576,-0.503154 -0.454728,-0.122836 -0.907094,-0.261026 -1.3571,-0.41457 -0.448822,-0.157088 -0.833865,-0.420476 -1.15513,-0.796069 -0.320081,-0.374412 -0.480712,-0.859849 -0.480712,-1.45277 0,-0.753549 0.269293,-1.40198 0.809061,-1.94411 0.538587,-0.54213 1.36655,-0.814967 2.4827,-0.814967 0.732289,0 1.39607,0.112206 1.99254,0.336617 0.597643,0.224411 0.895283,0.491342 0.895283,0.798431 0,0.18071 -0.0732289,0.388586 -0.220868,0.625989 -0.147639,0.237403 -0.330711,0.356696 -0.549217,0.356696 -0.0767723,0 -0.34016,-0.0968512 -0.788983,-0.289372 -0.448822,-0.192521 -0.878747,-0.288191 -1.28977,-0.288191 -0.513784,0 -0.902369,0.115749 -1.16458,0.349609 -0.263388,0.230317 -0.394491,0.490161 -0.394491,0.772447 0,0.311813 0.15945,0.555122 0.480712,0.738195 0.321262,0.179529 0.71221,0.327168 1.17402,0.442917 0.462996,0.119292 0.917724,0.259845 1.36418,0.426381 0.448822,0.17008 0.830321,0.459452 1.14568,0.872842 0.317719,0.41457 0.474807,0.943708 0.474807,1.5886 0,0.830321 -0.295278,1.4823 -0.885834,1.95356 -0.590556,0.471264 -1.42442,0.708667 -2.50278,0.708667 -0.911818,0 -1.69135,-0.15945 -2.3386,-0.480712 -0.64843,-0.321262 -0.973236,-0.674415 -0.973236,-1.05828zm8.33629 -1.61812l0 -9.64378c0,-0.179529 0.102757,-0.333073 0.30827,-0.461815 0.205513,-0.128741 0.43583,-0.192521 0.693313,-0.192521 0.256301,0 0.490161,0.06378 0.702761,0.192521 0.211419,0.128741 0.317719,0.282286 0.317719,0.461815l0 3.52326 2.34805 0c0.166537,0 0.302365,0.0732289 0.40394,0.220868 0.102757,0.147639 0.154726,0.323625 0.154726,0.529138 0,0.205513 -0.0519689,0.38268 -0.154726,0.529138 -0.101576,0.147639 -0.237403,0.222049 -0.40394,0.222049l-2.34805 0 0 4.61933c0,0.462996 0.0992134,0.790164 0.29764,0.982685 0.199608,0.192521 0.549217,0.288191 1.05001,0.288191l0.673234 0c0.269293,0 0.481894,0.0838589 0.635438,0.250396 0.153545,0.166537 0.231498,0.37205 0.231498,0.61654 0,0.243309 -0.0779534,0.448822 -0.231498,0.615359 -0.153545,0.166537 -0.366145,0.250396 -0.635438,0.250396l-0.673234 0c-2.24647,0 -3.36971,-1.00158 -3.36971,-3.00357zm5.98824 -0.673234l0 -1.77049c0,-1.01457 0.390948,-1.89923 1.17402,-2.6575 0.783077,-0.757093 1.7197,-1.13505 2.80986,-1.13505 1.06536,0 1.99608,0.375594 2.79215,1.1256 0.796069,0.751187 1.1941,1.63938 1.1941,2.66695l0 1.77049c0,1.00158 -0.401578,1.88978 -1.20355,2.66577 -0.801975,0.777171 -1.72915,1.16458 -2.7827,1.16458 -1.06418,0 -1.9949,-0.385042 -2.79097,-1.15513 -0.796069,-0.768904 -1.19292,-1.66182 -1.19292,-2.67522zm2.02088 -0.00590556c0,0.522051 0.192521,0.990953 0.577564,1.40434 0.385042,0.41457 0.846857,0.622446 1.38544,0.622446 0.526776,0 0.986228,-0.207876 1.37718,-0.622446 0.390948,-0.413389 0.587012,-0.88229 0.587012,-1.40434l0 -1.75868c0,-0.51024 -0.196065,-0.968512 -0.587012,-1.376 -0.390948,-0.407484 -0.8504,-0.612997 -1.37718,-0.612997 -0.538587,0 -1.0004,0.205513 -1.38544,0.612997 -0.385042,0.407484 -0.577564,0.865755 -0.577564,1.376l0 1.75868zm7.14218 2.29726c0,-0.192521 0.0673234,-0.392129 0.20197,-0.597643 0.13819,-0.205513 0.302365,-0.307089 0.497248,-0.307089 0.115749,0 0.27638,0.0732289 0.485437,0.224411 0.204332,0.150001 0.484256,0.301183 0.833865,0.452366 0.349609,0.150001 0.770085,0.227955 1.26143,0.227955 1.09961,0 1.64883,-0.35079 1.64883,-1.04646 0,-0.375594 -0.160631,-0.667328 -0.481894,-0.88229 -0.320081,-0.211419 -0.708667,-0.379137 -1.16458,-0.503154 -0.455909,-0.122836 -0.908275,-0.261026 -1.3571,-0.41457 -0.448822,-0.157088 -0.833865,-0.420476 -1.15513,-0.796069 -0.320081,-0.374412 -0.480712,-0.859849 -0.480712,-1.45277 0,-0.753549 0.269293,-1.40198 0.80788,-1.94411 0.539768,-0.54213 1.36655,-0.814967 2.48388,-0.814967 0.731108,0 1.39607,0.112206 1.99254,0.336617 0.596461,0.224411 0.895283,0.491342 0.895283,0.798431 0,0.18071 -0.07441,0.388586 -0.222049,0.625989 -0.147639,0.237403 -0.32953,0.356696 -0.548036,0.356696 -0.0767723,0 -0.34016,-0.0968512 -0.790164,-0.289372 -0.448822,-0.192521 -0.878747,-0.288191 -1.28859,-0.288191 -0.513784,0 -0.902369,0.115749 -1.16576,0.349609 -0.262207,0.230317 -0.394491,0.490161 -0.394491,0.772447 0,0.311813 0.160631,0.555122 0.481894,0.738195 0.320081,0.179529 0.71221,0.327168 1.17402,0.442917 0.461815,0.119292 0.917724,0.259845 1.363,0.426381 0.450004,0.17008 0.831503,0.459452 1.14568,0.872842 0.317719,0.41457 0.474807,0.943708 0.474807,1.5886 0,0.830321 -0.294097,1.4823 -0.884653,1.95356 -0.590556,0.471264 -1.4256,0.708667 -2.50278,0.708667 -0.911818,0 -1.69135,-0.15945 -2.33978,-0.480712 -0.64843,-0.321262 -0.972055,-0.674415 -0.972055,-1.05828z"/>
 </g>
</svg>
