<?xml version="1.0" encoding="UTF-8"?>
<!DOCTYPE svg PUBLIC "-//W3C//DTD SVG 1.1//EN" "http://www.w3.org/Graphics/SVG/1.1/DTD/svg11.dtd">
<!-- Creator: CorelDRAW -->
<svg xmlns="http://www.w3.org/2000/svg" xml:space="preserve" width="75px" height="75px" shape-rendering="geometricPrecision" text-rendering="geometricPrecision" image-rendering="optimizeQuality" fill-rule="evenodd" clip-rule="evenodd"
viewBox="0 0 75 75">
 <g id="Capa_x0020_1">
  <metadata id="CorelCorpID_0Corel-Layer"/>
  <path fill="black" d="M49.9134 72.3496c-1.28031,-0.124016 -3.12283,-0.124016 -4.22362,-0.798425 -0.0224409,-0.227953 -0.0224409,-0.227953 0.124016,-0.891732 0.527953,-1.32756 1.05591,-2.65394 1.59449,-3.9815 -0.762992,0.403937 -1.52717,0.809055 -2.29134,1.21299 -1.62874,0.622441 -3.2126,1.11969 -4.9311,1.47283 -2.70709,0.165354 -5.40354,0.196063 -8.11063,0 -2.29134,-0.529134 -4.22362,-1.11969 -6.34724,-2.06339 -0.0779528,0 -0.157087,0.00944882 -0.235039,0.0200787 -0.21378,0.995669 -0.382677,3.47362 -1.30394,4.25197 -2.31378,0.445276 -4.79528,0.517323 -7.15512,0.517323 -0.807874,-0.185433 -0.999213,-1.62756 -1.21299,-2.24882 -0.69685,-2.40591 -1.38189,-4.81181 -2.06693,-7.21772 -1.26969,-1.3063 -2.88661,-2.68465 -3.67323,-4.30276 0.741732,-0.405118 1.48228,-0.798425 2.23583,-1.19291 2.02205,-1.43031 3.16772,-2.9752 4.16693,-5.12126 0.191339,-0.705118 0.674409,-2.08465 0.562205,-2.74843 -0.0897638,0 -0.179528,0 -0.269291,0.0106299 -1.86496,1.56496 -3.96614,2.44724 -6.30236,3.28701 -1.01102,0.238583 -2.02205,0.486614 -3.02244,0.735827 -3.29055,-1.2437 -4.94173,-4.0748 -5.71654,-7.10315 -0.281102,-2.46732 -0.0448819,-4.76929 0.605906,-7.1752 0.0791339,-0.0307087 0.157087,-0.0614173 0.24685,-0.0933071 5.89843,-0.3 5.89843,-0.3 6.99921,-0.403937 0.876378,-2.02205 2.15669,-3.89882 3.76299,-5.49567 1.03346,-0.735827 1.54961,-1.02638 1.93228,-1.34764 0,-0.125197 0.0106299,-0.249213 0.0224409,-0.373228 -0.562205,-2.77913 -1.76339,-8.40945 2.47087,-9.33189 2.14488,0 2.86417,0.66378 4.2685,2.13543 0.662598,0.902362 1.1563,1.89803 1.82008,2.77913 0.0555118,0 0.112205,0.0106299 0.179528,0.0212598 1.98898,-0.591732 1.98898,-0.591732 4.34764,-1.17165 4.41378,-0.757087 8.65984,-0.798425 13.1197,-0.374409 3.61772,0.570472 6.75118,1.72205 10.0205,3.24567 2.4378,1.34882 4.51535,2.82047 6.63898,4.5626 0.572835,0.570472 1.14567,1.15039 1.72913,1.7315 1.56142,1.84606 2.74134,3.70157 3.75236,5.83819 0.100394,0.124016 0.201969,0.248031 0.314173,0.373228 1.50591,0 3.02244,-0.249213 4.51654,-0.414567 1.56142,-1.35827 3.61654,-4.01339 5.26772,-1.44213 0,0.550394 -0.122835,0.954331 -0.291732,1.48346 -0.393307,0.31063 -0.786614,0.62126 -1.17992,0.94252 1.65118,1.97126 2.01142,3.59882 0.258661,5.64094 -2.35866,1.70079 -5.63858,1.30748 -6.52677,-1.50236 -0.0224409,-0.487795 0.011811,-1.03819 -0.167717,-1.49409 -0.303543,0.0318898 -0.607087,0.0625984 -0.898819,0.0933071 -0.112205,1.40079 -0.112205,1.40079 -0.180709,5.74488 -0.314173,2.6126 -1.39252,4.97717 -2.51575,7.37244 -5.44724,9.21732 -5.44724,9.21732 -7.3689,12.6083 -0.764173,1.15157 -1.04409,1.95945 -2.53819,2.16732 -0.809055,0.0106299 -1.61811,0.0200787 -2.42717,0.0413386zm19.4563 -27.1984c0.034252,-0.403937 0.124016,-0.62126 0.403937,-0.911811 0.370866,0.0625984 0.629528,0.207874 0.775984,0.538583 -0.393307,0.166535 -0.753543,0.290551 -1.17992,0.373228zm-50.2016 -3.75236c-1.47165,-0.654331 -1.72913,-1.14094 -1.72913,-2.59252 0.145276,-0.518504 0.145276,-0.518504 0.448819,-1.05827 2.2689,-1.81417 4.47165,0.279921 3.52677,2.62323 -0.685039,0.839764 -1.16811,0.954331 -2.24646,1.02756zm29.263 -7.08307c-2.07874,-0.777165 -4.14567,-1.53425 -6.33543,-2.0315 -0.843307,-0.103937 -1.6748,-0.197244 -2.50512,-0.290551 -1.92047,0 -3.84213,0 -5.75079,0 -1.98898,0.290551 -3.53976,0.590551 -3.90945,0.590551 -1.1126,-0.714567 -1.73031,-1.69016 -0.685039,-2.78858 2.74016,-1.37953 6.29055,-1.19291 9.31181,-1.19291 3.66142,0.227953 8.17795,1.0063 11.2441,2.97638 0.91063,1.33701 0.281102,2.57126 -1.37008,2.73661zm-9.64961 -14.7437c-1.38189,-0.249213 -2.41535,-0.591732 -3.68504,-1.14094 -2.54882,-1.54488 -4.39134,-3.87756 -4.7622,-6.73937 0,-0.871654 0,-1.73268 0,-2.59252 0.0448819,-0.35315 0.0897638,-0.694488 0.146457,-1.03701 1.47047,-4.33465 4.54961,-7.02992 9.62598,-7.02992 3.08976,0.425197 5.15669,1.70079 7.03228,4.0122 0.843307,1.37953 1.23543,2.65512 1.55079,4.2 0,0.66378 0,1.33701 0,2.01142 -0.135827,0.96378 -0.45,1.87677 -0.741732,2.79921 -0.516142,1.02638 -1.20236,1.89803 -1.92047,2.81102 -2.11299,1.94882 -4.30276,2.62205 -7.24606,2.70591zm0.370866 -4.7185c-0.0673228,-0.248031 -0.134646,-0.497244 -0.201969,-0.735827 -1.21417,-0.726378 -2.22402,-0.995669 -2.12362,-2.52992 0.438189,-0.103937 1.17992,-0.186614 1.58386,-0.0413386 0.157087,0.683858 0.651969,1.54488 1.50591,0.870472 0.212598,-0.601181 0.179528,-0.725197 -0.225591,-1.2437 -1.87559,-1.14094 -1.87559,-1.14094 -2.34803,-1.52362 -0.774803,-1.54606 -0.0555118,-2.71772 1.57323,-3.3189 0.0673228,-0.311811 0.134646,-0.622441 0.201969,-0.933071 0.258661,0 0.517323,0 0.786614,0 0.0791339,0.683858 0.0791339,0.683858 0.201969,0.943701 1.34882,0.673228 1.49409,1.10906 1.76457,2.39528 -0.550394,-0.0212598 -1.10197,-0.0413386 -1.65236,-0.0519685 -0.179528,-0.787795 -0.269291,-0.964961 -1.1563,-0.933071 -0.933071,1.23307 0.774803,1.80354 1.73031,2.36457 0.954331,0.838583 0.964961,1.0878 0.964961,2.31142 -0.145276,0.529134 -0.47126,0.850394 -0.909449,1.21299 -0.92126,0.32126 -0.954331,0.301181 -1.08898,1.16102 -0.20315,0.0106299 -0.405118,0.0318898 -0.607087,0.0519685z"/>
 </g>
</svg>
